<svg xmlns="http://www.w3.org/2000/svg" version="1.1" xmlns:xlink="http://www.w3.org/1999/xlink" xmlns:svgjs="http://svgjs.dev/svgjs" width="2000" height="2000" viewBox="0 0 2000 2000"><g transform="matrix(1,0,0,1,-0.28443113772425477,-0.28443113772459583)"><svg viewBox="0 0 334 334" data-background-color="#ffffff" preserveAspectRatio="xMidYMid meet" height="2000" width="2000" xmlns="http://www.w3.org/2000/svg" xmlns:xlink="http://www.w3.org/1999/xlink"><g id="tight-bounds" transform="matrix(1,0,0,1,0.04749999999998522,0.04750000000001364)"><svg viewBox="0 0 333.90454557049503 333.90454557049503" height="333.90454557049503" width="333.90454557049503"><g><svg></svg></g><g><svg viewBox="0 0 333.90454557049503 333.90454557049503" height="333.90454557049503" width="333.90454557049503"><g><path d="M0 166.952c0-92.205 74.747-166.952 166.952-166.952 92.205 0 166.952 74.747 166.953 166.952 0 92.205-74.747 166.952-166.953 166.953-92.205 0-166.952-74.747-166.952-166.953zM166.952 316.63c82.665 0 149.677-67.013 149.678-149.678 0-82.665-67.013-149.677-149.678-149.677-82.665 0-149.677 67.013-149.677 149.677 0 82.665 67.013 149.677 149.677 149.678z" data-fill-palette-color="tertiary" fill="#f13524" stroke="transparent"></path><ellipse rx="160.27418187383762" ry="160.27418187383762" cx="166.95227278524752" cy="166.95227278524752" fill="#f13524" stroke="transparent" stroke-width="0" fill-opacity="1" data-fill-palette-color="tertiary"></ellipse></g><g transform="matrix(1,0,0,1,71.43086972379163,71.17305217166896)"><svg viewBox="0 0 191.04280612291177 191.55844122715712" height="191.55844122715712" width="191.04280612291177"><g><svg viewBox="0 0 191.04280612291177 191.55844122715712" height="191.55844122715712" width="191.04280612291177"><g><svg viewBox="0 0 191.04280612291177 191.55844122715712" height="191.55844122715712" width="191.04280612291177"><g><svg viewBox="0 0 191.04280612291177 191.55844122715712" height="191.55844122715712" width="191.04280612291177"><g id="textblocktransform"><svg viewBox="0 0 191.04280612291177 191.55844122715712" height="191.55844122715712" width="191.04280612291177" id="textblock"><g><svg viewBox="0 0 191.04280612291177 191.55844122715712" height="191.55844122715712" width="191.04280612291177"><g transform="matrix(1,0,0,1,0,0)"><svg width="191.04280612291177" viewBox="1.9000000953674316 -36.150001525878906 37.04999923706055 37.150001525878906" height="191.55844122715712" data-palette-color="#ffffff"><path d="M18.5 1Q14.2 1 10.48 0.05 6.75-0.9 5.23-1.85 3.7-2.8 3.2-3.2L3.2-3.2Q1.9-4.25 1.9-6.1L1.9-6.1Q1.9-7.55 2.25-8.85L2.25-8.85Q2.9-11.3 4.6-11.3L4.6-11.3Q5.15-11.25 8.13-10.15 11.1-9.05 12.8-9.05L12.8-9.05Q15.35-9.05 15.35-11.05L15.35-11.05Q15.35-12.25 14.1-13.28 12.85-14.3 11.08-15.25 9.3-16.2 7.5-17.43 5.7-18.65 4.45-20.83 3.2-23 3.2-25.9L3.2-25.9Q3.2-30.7 7.9-33.43 12.6-36.15 20.05-36.15 27.5-36.15 31.88-34.63 36.25-33.1 36.25-30.4L36.25-30.4Q36.25-28.45 35.35-26.98 34.45-25.5 33.45-25.5L33.45-25.5Q33.1-25.5 31.13-26.28 29.15-27.05 27.55-27.05L27.55-27.05Q24.4-27.05 24.4-24.6L24.4-24.6Q24.4-23.4 25.9-22.4 27.4-21.4 29.53-20.48 31.65-19.55 33.8-18.4 35.95-17.25 37.45-15.25 38.95-13.25 38.95-10.4 38.95-7.55 37.13-5.2 35.3-2.85 32.3-1.55L32.3-1.55Q26.35 1 18.5 1L18.5 1Z" opacity="1" transform="matrix(1,0,0,1,0,0)" fill="#ffffff" class="wordmark-text-0" data-fill-palette-color="quaternary" id="text-0"></path></svg></g></svg></g></svg></g></svg></g><g></g></svg></g></svg></g></svg></g></svg></g><defs></defs></svg><rect width="333.90454557049503" height="333.90454557049503" fill="none" stroke="none" visibility="hidden"></rect></g></svg></g></svg>